<svg xmlns="http://www.w3.org/2000/svg" xmlns:xlink="http://www.w3.org/1999/xlink" width="1000" height="159" viewBox="0 0 1000 159" version="1.1">
  <defs>
    <style>
      
			.u_with_stripes {
				display: none;
			}

			@media (min-width: 900px) {
				.u_with_stripes {
					display: block;
				}


				.letter_u {
					display: none;
				}
			}
		
    </style>
  </defs>
  <g class="publisher" transform="translate(462.462462, 2.000000)">
    <path d="M28.64 19.71L28.64 47.94C29.44 47.99 30.13 48.01 30.72 48.01 33.31 48.01 35.11 47.36 36.12 46.06 37.12 44.75 37.63 42.05 37.63 37.93L37.63 28.82C37.63 25.03 37.05 22.56 35.88 21.42 34.72 20.28 32.3 19.71 28.64 19.71L28.64 19.71ZM0.38 0.72L28.84 0.72C36.53 0.72 42.45 1.34 46.59 2.57 50.72 3.81 53.83 5.59 55.91 7.92 57.99 10.25 59.4 13.07 60.14 16.38 60.88 19.7 61.25 24.82 61.25 31.77L61.25 41.43C61.25 48.51 60.53 53.67 59.1 56.92 57.67 60.16 55.04 62.65 51.22 64.39 47.39 66.12 42.39 66.99 36.22 66.99L28.64 66.99 28.64 111.67 0.38 111.67 0.38 0.72 0.38 0.72Z" id="Fill-1" fill="#5F9E64"/>
    <path d="M175.73 46.57C175.73 41.86 175.44 38.79 174.86 37.35 174.27 35.91 173.14 35.19 171.44 35.19 169.78 35.19 168.71 35.82 168.21 37.08 167.72 38.34 167.48 41.5 167.48 46.57L167.48 85.77C167.48 90.66 167.76 93.78 168.32 95.15 168.87 96.53 169.98 97.21 171.64 97.21 173.34 97.21 174.44 96.5 174.96 95.09 175.47 93.67 175.73 90.27 175.73 84.88L175.73 46.57 175.73 46.57ZM167.48 0.72L167.48 26.99C169.71 24.33 172.21 22.35 174.96 21.05 177.71 19.74 180.7 19.09 183.92 19.09 187.63 19.09 190.85 19.68 193.58 20.87 196.31 22.06 198.39 23.73 199.82 25.88 201.25 28.02 202.11 30.12 202.41 32.18 202.69 34.24 202.84 38.62 202.84 45.34L202.84 86.32C202.84 92.99 202.41 97.96 201.53 101.22 200.66 104.49 198.61 107.32 195.39 109.72 192.17 112.12 188.35 113.32 183.92 113.32 180.74 113.32 177.78 112.61 175.03 111.19 172.27 109.77 169.76 107.64 167.48 104.8L165.73 111.67 140.37 111.67 140.37 0.72 167.48 0.72 167.48 0.72Z" id="Fill-2" fill="#5F9E64"/>
    <path d="M211.77 0.72L239.68 0.72 239.68 111.67 211.77 111.67 211.77 0.72Z" id="Fill-3" fill="#5F9E64"/>
    <path d="M249.41 20.74L277.33 20.74 277.33 111.67 249.41 111.67 249.41 20.74ZM249.41 0.72L277.33 0.72 277.33 15.18 249.41 15.18 249.41 0.72Z" id="Fill-4" fill="#5F9E64"/>
    <path d="M342.42 49.79L318.4 49.79 318.4 44.86C318.4 40.65 318.16 37.99 317.69 36.87 317.22 35.75 316.05 35.19 314.17 35.19 312.65 35.19 311.51 35.71 310.75 36.74 309.99 37.76 309.61 39.31 309.61 41.36 309.61 44.15 309.8 46.19 310.18 47.49 310.56 48.8 311.7 50.23 313.6 51.78 315.5 53.33 319.4 55.59 325.31 58.56 333.18 62.49 338.35 66.19 340.81 69.66 343.27 73.14 344.5 78.18 344.5 84.81 344.5 92.21 343.56 97.79 341.68 101.56 339.8 105.33 336.66 108.23 332.25 110.27 327.85 112.3 322.54 113.32 316.32 113.32 309.43 113.32 303.53 112.22 298.63 110.02 293.74 107.83 290.37 104.86 288.54 101.12 286.7 97.37 285.78 91.71 285.78 84.12L285.78 79.74 309.81 79.74 309.81 85.49C309.81 90.38 310.11 93.56 310.71 95.02 311.32 96.48 312.51 97.21 314.3 97.21 316.23 97.21 317.57 96.72 318.33 95.74 319.09 94.76 319.47 92.69 319.47 89.54 319.47 85.2 318.98 82.48 317.99 81.38 316.96 80.28 311.71 77.04 302.22 71.65 294.26 67.08 289.41 62.94 287.66 59.21 285.92 55.49 285.05 51.07 285.05 45.95 285.05 38.69 285.98 33.33 287.86 29.88 289.74 26.43 292.93 23.77 297.43 21.9 301.92 20.03 307.15 19.09 313.1 19.09 319 19.09 324.02 19.86 328.16 21.39 332.3 22.92 335.47 24.94 337.69 27.45 339.91 29.96 341.25 32.29 341.72 34.44 342.19 36.59 342.42 39.95 342.42 44.51L342.42 49.79" id="Fill-5" fill="#5F9E64"/>
    <path d="M378.86 0.72L378.86 25.69C381.19 23.49 383.7 21.84 386.41 20.74 389.11 19.64 392.01 19.09 395.1 19.09 399.84 19.09 403.88 20.32 407.21 22.79 410.54 25.26 412.58 28.1 413.32 31.32 414.06 34.54 414.43 40.43 414.43 48.97L414.43 111.67 387.32 111.67 387.32 47.67C387.32 42.37 387.06 38.96 386.54 37.45 386.03 35.95 384.87 35.19 383.09 35.19 381.43 35.19 380.31 35.97 379.73 37.52 379.15 39.08 378.86 42.16 378.86 46.78L378.86 111.67 351.75 111.67 351.75 0.72 378.86 0.72" id="Fill-6" fill="#5F9E64"/>
    <path d="M457.98 53.01L457.98 46.36C457.98 41.66 457.73 38.62 457.24 37.25 456.75 35.88 455.74 35.19 454.22 35.19 452.34 35.19 451.18 35.78 450.73 36.94 450.28 38.11 450.06 41.25 450.06 46.36L450.06 53.01 457.98 53.01 457.98 53.01ZM485.16 67.81L450.06 67.81 450.06 87.48C450.06 91.59 450.35 94.24 450.93 95.43 451.51 96.62 452.63 97.21 454.29 97.21 456.34 97.21 457.72 96.42 458.41 94.85 459.11 93.27 459.45 90.22 459.45 85.7L459.45 73.71 485.16 73.71 485.16 80.42C485.16 86.04 484.81 90.36 484.11 93.37 483.42 96.39 481.8 99.61 479.25 103.03 476.7 106.46 473.47 109.03 469.55 110.75 465.64 112.46 460.73 113.32 454.82 113.32 449.1 113.32 444.04 112.47 439.66 110.78 435.27 109.09 431.86 106.77 429.42 103.82 426.98 100.88 425.3 97.63 424.36 94.09 423.42 90.55 422.95 85.4 422.95 78.64L422.95 52.12C422.95 44.17 424 37.9 426.1 33.31 428.2 28.72 431.65 25.2 436.44 22.76 441.22 20.31 446.73 19.09 452.94 19.09 460.55 19.09 466.82 20.56 471.77 23.51 476.71 26.46 480.18 30.36 482.17 35.23 484.16 40.09 485.16 46.94 485.16 55.75L485.16 67.81 485.16 67.81Z" id="Fill-7" fill="#5F9E64"/>
    <path d="M521.12 20.74L520.05 32.69C523.99 24.13 529.69 19.59 537.16 19.09L537.16 51.09C532.2 51.09 528.55 51.78 526.22 53.15 523.9 54.52 522.47 56.43 521.93 58.87 521.39 61.32 521.12 66.95 521.12 75.76L521.12 111.67 494.01 111.67 494.01 20.74 521.12 20.74" id="Fill-8" fill="#5F9E64"/>
    <path d="M130.74 20.95L130.74 111.88 103.16 111.88 103.63 104.33C101.75 107.4 99.44 109.7 96.69 111.23 93.94 112.76 90.77 113.53 87.19 113.53 83.12 113.53 79.74 112.8 77.06 111.34 74.37 109.87 72.39 107.93 71.12 105.51 69.84 103.09 69.05 100.57 68.74 97.94 68.42 95.31 68.27 90.09 68.27 82.28L68.27 20.95 95.38 20.95 95.38 82.83C95.38 89.91 95.59 94.11 96.01 95.44 96.44 96.76 97.59 97.43 99.47 97.43 101.48 97.43 102.68 96.74 103.06 95.37 103.44 94 103.63 89.59 103.63 82.14L103.63 20.95 130.74 20.95" class="letter_u" fill="#FFFFFF"/>
    <g class="u_with_stripes" transform="translate(68.068068, 20.000000)">
      <path d="M27.2 62.61L27.2 53.27 0.09 53.27 0.09 62.07C0.09 63.21 0.1 64.29 0.1 65.32L27.22 65.32C27.21 64.47 27.2 63.57 27.2 62.61" id="Fill-9" fill="#FFFFFF"/>
      <path d="M35.46 0.74L62.57 0.74 62.57 39.17 35.46 39.17 35.46 0.74Z" id="Fill-10" fill="#FFFFFF"/>
      <path d="M0.09 0.74L27.2 0.74 27.2 39.17 0.09 39.17 0.09 0.74Z" id="Fill-11" fill="#FFFFFF"/>
      <path d="M2.95 85.3C4.22 87.72 6.2 89.66 8.88 91.12 11.57 92.58 14.94 93.32 19.02 93.32 22.59 93.32 25.76 92.55 28.51 91.02 31.26 89.48 33.58 87.18 35.46 84.12L34.99 91.67 62.57 91.67 62.57 79.42 0.84 79.42C1.25 81.44 1.94 83.4 2.95 85.3L2.95 85.3Z" id="Fill-12" fill="#FFFFFF"/>
      <path d="M0.09 40.17L27.2 40.17 27.2 52.26 0.09 52.26 0.09 40.17Z" id="Fill-13" fill="#FFFFFF"/>
      <path d="M34.89 75.15C34.5 76.53 33.31 77.21 31.3 77.21 29.42 77.21 28.26 76.55 27.84 75.22 27.49 74.15 27.29 71.16 27.23 66.32L0.11 66.32C0.16 71.79 0.31 75.61 0.56 77.72 0.59 77.96 0.64 78.18 0.67 78.41L62.57 78.41 62.57 66.32 35.43 66.32C35.36 71.12 35.18 74.08 34.89 75.15L34.89 75.15Z" id="Fill-14" fill="#FFFFFF"/>
      <path d="M35.46 61.93C35.46 63.15 35.45 64.26 35.44 65.32L62.57 65.32 62.57 53.27 35.46 53.27 35.46 61.93 35.46 61.93Z" id="Fill-15" fill="#FFFFFF"/>
      <path d="M35.46 52.26L62.57 52.26 62.57 40.17 35.46 40.17 35.46 52.26Z" id="Fill-16" fill="#FFFFFF"/>
      <path d="M53.55 82.86L58.68 82.86 58.68 88.1 53.55 88.1 53.55 82.86Z" id="Fill-17" fill="#000000"/>
      <path d="M53.55 69.77L58.68 69.77 58.68 75.01 53.55 75.01 53.55 69.77Z" id="Fill-18" fill="#000000"/>
      <path d="M53.55 56.71L58.68 56.71 58.68 61.95 53.55 61.95 53.55 56.71Z" id="Fill-19" fill="#000000"/>
      <path d="M53.55 43.62L58.68 43.62 58.68 48.86 53.55 48.86 53.55 43.62Z" id="Fill-20" fill="#000000"/>
    </g>
  </g>
  <g class="fuer_typo3" transform="translate(826.826827, 118.000000)" fill="#FFFFFF">
    <path d="M0.09 6.51L14.66 6.51 14.66 13.27 8.7 13.27 8.7 19.68 14.01 19.68 14.01 26.1 8.7 26.1 8.7 40.29 0.09 40.29 0.09 6.51" id="Fill-30"/>
    <path id="Fill-32" d="M27.73,15.189c0-1.569-0.09-2.58-0.25-3.01c-0.181-0.439-0.53-0.66-1.061-0.66
    		c-0.449,0-0.79,0.181-1.029,0.53c-0.24,0.351-0.36,1.4-0.36,3.14V30.96c0,1.97,0.08,3.181,0.24,3.63
    		c0.149,0.46,0.52,0.689,1.09,0.689c0.59,0,0.96-0.26,1.13-0.789c0.16-0.53,0.24-1.79,0.24-3.78V15.189L27.73,15.189z M36.33,26.29
    		c0,3.39-0.08,5.8-0.229,7.21c-0.16,1.41-0.65,2.7-1.471,3.87c-0.83,1.17-1.939,2.069-3.34,2.69C29.879,40.689,28.25,41,26.379,41
    		c-1.77,0-3.359-0.3-4.77-0.891c-1.41-0.59-2.54-1.469-3.4-2.659c-0.859-1.181-1.37-2.47-1.53-3.86c-0.17-1.39-0.25-3.82-0.25-7.3
    		v-5.78c0-3.39,0.08-5.8,0.24-7.21c0.15-1.409,0.641-2.7,1.471-3.87c0.819-1.17,1.93-2.06,3.34-2.689
    		c1.399-0.631,3.04-0.94,4.899-0.94c1.771,0,3.36,0.3,4.771,0.89s2.54,1.48,3.399,2.66c0.86,1.18,1.37,2.471,1.54,3.86
    		c0.16,1.39,0.24,3.819,0.24,7.3V26.29L36.33,26.29z"/>
    <path d="M48.23 12.29L48.23 19.8C49.2 19.8 49.88 19.67 50.27 19.39 50.66 19.12 50.85 18.24 50.85 16.75L50.85 14.9C50.85 13.83 50.66 13.12 50.29 12.79 49.91 12.46 49.23 12.29 48.23 12.29L48.23 12.29ZM39.63 6.51L45.72 6.51C49.78 6.51 52.53 6.67 53.96 6.99 55.4 7.31 56.57 8.13 57.48 9.44 58.38 10.76 58.84 12.85 58.84 15.73 58.84 18.36 58.52 20.13 57.88 21.03 57.24 21.94 55.98 22.48 54.1 22.66 55.8 23.09 56.94 23.67 57.53 24.39 58.11 25.12 58.48 25.78 58.62 26.38 58.77 26.99 58.84 28.66 58.84 31.38L58.84 40.29 50.85 40.29 50.85 29.06C50.85 27.26 50.71 26.14 50.43 25.7 50.15 25.28 49.42 25.06 48.23 25.06L48.23 40.29 39.63 40.29 39.63 6.51 39.63 6.51Z" id="Fill-34"/>
    <path d="M86.87 6.51L86.87 13.27 81.76 13.27 81.76 40.29 73.16 40.29 73.16 13.27 68.07 13.27 68.07 6.51 86.87 6.51" id="Fill-35"/>
    <path d="M108.2 6.51L101.93 28.06 101.93 40.29 93.96 40.29 93.96 28.06 87.91 6.51 95.81 6.51C97.05 13.1 97.75 17.54 97.9 19.82 98.38 16.22 99.18 11.78 100.3 6.51L108.2 6.51" id="Fill-36"/>
    <path d="M118.28 12.29L118.28 20.89C118.52 20.9 118.73 20.91 118.91 20.91 119.7 20.91 120.25 20.71 120.55 20.31 120.86 19.92 121.01 19.09 121.01 17.84L121.01 15.06C121.01 13.91 120.84 13.16 120.48 12.81 120.13 12.46 119.39 12.29 118.28 12.29L118.28 12.29ZM109.67 6.51L118.34 6.51C120.68 6.51 122.48 6.7 123.74 7.07 125 7.45 125.95 7.99 126.58 8.7 127.22 9.41 127.64 10.27 127.87 11.28 128.09 12.29 128.2 13.85 128.2 15.96L128.2 18.9C128.2 21.06 127.99 22.63 127.55 23.62 127.11 24.61 126.31 25.37 125.15 25.89 123.99 26.42 122.46 26.69 120.59 26.69L118.28 26.69 118.28 40.29 109.67 40.29 109.67 6.51 109.67 6.51Z" id="Fill-37"/>
    <path d="M141.73 15.19C141.73 13.62 141.64 12.61 141.48 12.18 141.3 11.74 140.95 11.52 140.42 11.52 139.97 11.52 139.63 11.7 139.39 12.05 139.15 12.4 139.03 13.45 139.03 15.19L139.03 30.96C139.03 32.93 139.11 34.14 139.27 34.59 139.42 35.05 139.79 35.28 140.36 35.28 140.95 35.28 141.32 35.02 141.49 34.49 141.65 33.96 141.73 32.7 141.73 30.71L141.73 15.19 141.73 15.19ZM150.33 26.29C150.33 29.68 150.25 32.09 150.1 33.5 149.94 34.91 149.45 36.2 148.63 37.37 147.8 38.54 146.69 39.44 145.29 40.06 143.88 40.69 142.25 41 140.38 41 138.61 41 137.02 40.7 135.61 40.11 134.2 39.52 133.07 38.64 132.21 37.45 131.35 36.27 130.84 34.98 130.68 33.59 130.51 32.2 130.43 29.77 130.43 26.29L130.43 20.51C130.43 17.12 130.51 14.71 130.67 13.3 130.82 11.89 131.31 10.6 132.14 9.43 132.96 8.26 134.07 7.37 135.48 6.74 136.88 6.11 138.52 5.8 140.38 5.8 142.15 5.8 143.74 6.1 145.15 6.69 146.56 7.28 147.69 8.17 148.55 9.35 149.41 10.53 149.92 11.82 150.09 13.21 150.25 14.6 150.33 17.03 150.33 20.51L150.33 26.29 150.33 26.29Z" id="Fill-39"/>
    <path d="M168.8 21.15C170.06 21.58 170.99 22.28 171.6 23.27 172.22 24.25 172.52 26.55 172.52 30.17 172.52 32.85 172.22 34.94 171.62 36.42 171.02 37.9 169.99 39.03 168.52 39.8 167.05 40.57 165.16 40.96 162.86 40.96 160.24 40.96 158.19 40.51 156.7 39.61 155.2 38.71 154.22 37.62 153.75 36.32 153.28 35.02 153.05 32.76 153.05 29.54L153.05 26.87 161.3 26.87 161.3 32.36C161.3 33.82 161.39 34.75 161.56 35.15 161.73 35.54 162.11 35.74 162.69 35.74 163.33 35.74 163.76 35.49 163.96 34.99 164.17 34.49 164.27 33.18 164.27 31.07L164.27 28.73C164.27 27.44 164.12 26.49 163.84 25.89 163.55 25.3 163.13 24.9 162.57 24.71 162.01 24.53 160.93 24.42 159.32 24.39L159.32 19.49C161.28 19.49 162.5 19.41 162.96 19.26 163.42 19.1 163.76 18.77 163.96 18.26 164.17 17.74 164.27 16.94 164.27 15.84L164.27 13.96C164.27 12.78 164.15 12 163.91 11.62 163.67 11.25 163.3 11.06 162.8 11.06 162.22 11.06 161.83 11.26 161.62 11.65 161.41 12.05 161.3 12.9 161.3 14.19L161.3 16.96 153.05 16.96 153.05 14.09C153.05 10.86 153.77 8.68 155.21 7.54 156.66 6.41 158.96 5.84 162.1 5.84 166.04 5.84 168.71 6.63 170.11 8.2 171.51 9.77 172.22 11.95 172.22 14.75 172.22 16.64 171.96 18 171.46 18.84 170.96 19.68 170.07 20.45 168.8 21.15" id="Fill-40"/>
  </g>
  <g class="content" fill="#FFFFFF">
    <path d="M66.77 51.04L38.52 51.04 38.52 31.75C38.52 26.15 38.22 22.65 37.61 21.26 37.01 19.87 35.68 19.17 33.62 19.17 31.29 19.17 29.82 20.02 29.19 21.71 28.56 23.4 28.25 27.05 28.25 32.67L28.25 84.2C28.25 89.6 28.56 93.11 29.19 94.76 29.82 96.4 31.23 97.22 33.42 97.22 35.52 97.22 36.9 96.4 37.55 94.75 38.19 93.1 38.52 89.23 38.52 83.14L38.52 69.2 66.77 69.2 66.77 73.52C66.77 85 65.98 93.15 64.39 97.95 62.8 102.76 59.29 106.96 53.85 110.58 48.42 114.19 41.72 116 33.76 116 25.48 116 18.66 114.47 13.29 111.41 7.92 108.35 4.36 104.11 2.62 98.7 0.87 93.28 0 85.14 0 74.27L0 41.85C0 33.86 0.27 27.86 0.81 23.86 1.34 19.87 2.94 16.02 5.6 12.32 8.26 8.62 11.95 5.71 16.68 3.58 21.39 1.46 26.82 0.4 32.95 0.4 41.27 0.4 48.14 2.04 53.55 5.32 58.96 8.61 62.52 12.7 64.22 17.61 65.92 22.51 66.77 30.14 66.77 40.5L66.77 51.04" id="Fill-22"/>
    <path d="M110.32 47.82C110.32 43.16 110.08 40.22 109.58 39.01 109.09 37.8 108.04 37.19 106.43 37.19 104.82 37.19 103.75 37.8 103.21 39.01 102.67 40.22 102.4 43.16 102.4 47.82L102.4 88.86C102.4 93.16 102.67 95.95 103.21 97.26 103.75 98.56 104.8 99.21 106.36 99.21 107.97 99.21 109.04 98.62 109.55 97.43 110.06 96.24 110.32 93.68 110.32 89.75L110.32 47.82 110.32 47.82ZM137.43 54.67L137.43 76.94C137.43 85.12 137.03 91.11 136.22 94.93 135.42 98.74 133.7 102.31 131.06 105.62 128.42 108.93 125.03 111.38 120.89 112.95 116.75 114.53 112 115.32 106.63 115.32 100.64 115.32 95.56 114.64 91.4 113.29 87.24 111.95 84 109.91 81.7 107.19 79.39 104.48 77.75 101.19 76.77 97.33 75.78 93.47 75.29 87.68 75.29 79.96L75.29 56.66C75.29 48.2 76.19 41.6 77.98 36.85 79.77 32.1 82.99 28.29 87.64 25.41 92.29 22.53 98.24 21.09 105.49 21.09 111.57 21.09 116.8 22.02 121.16 23.86 125.52 25.72 128.89 28.13 131.26 31.09 133.63 34.07 135.25 37.13 136.12 40.28 137 43.43 137.43 48.23 137.43 54.67L137.43 54.67Z" id="Fill-24"/>
    <path d="M173.94 22.74L173.47 31.11C175.44 27.77 177.84 25.27 180.68 23.6 183.52 21.93 186.8 21.09 190.51 21.09 195.16 21.09 198.97 22.21 201.92 24.45 204.87 26.69 206.77 29.51 207.63 32.91 208.47 36.31 208.9 41.99 208.9 49.94L208.9 113.67 181.79 113.67 181.79 50.69C181.79 44.44 181.59 40.62 181.19 39.25 180.78 37.88 179.66 37.19 177.83 37.19 175.91 37.19 174.7 37.98 174.21 39.56 173.71 41.13 173.47 45.35 173.47 52.2L173.47 113.67 146.36 113.67 146.36 22.74 173.94 22.74" id="Fill-25"/>
    <path d="M246.81 10.6L246.81 24.93 254.13 24.93 254.13 39.32 246.81 39.32 246.81 87.97C246.81 93.96 247.12 97.29 247.72 97.98 248.33 98.66 250.84 99.01 255.27 99.01L255.27 113.67 244.33 113.67C238.16 113.67 233.75 113.41 231.11 112.88 228.47 112.36 226.15 111.15 224.13 109.25 222.12 107.36 220.87 105.19 220.38 102.74 219.88 100.3 219.64 94.55 219.64 85.51L219.64 39.32 213.8 39.32 213.8 24.93 219.64 24.93 219.64 10.6 246.81 10.6" id="Fill-26"/>
    <path d="M294.33 55.01L294.33 48.36C294.33 43.66 294.08 40.62 293.59 39.25 293.09 37.88 292.09 37.19 290.57 37.19 288.69 37.19 287.53 37.78 287.08 38.94 286.63 40.11 286.41 43.25 286.41 48.36L286.41 55.01 294.33 55.01 294.33 55.01ZM321.5 69.81L286.41 69.81 286.41 89.48C286.41 93.59 286.7 96.24 287.28 97.43 287.86 98.62 288.98 99.21 290.63 99.21 292.69 99.21 294.07 98.42 294.76 96.85 295.46 95.27 295.8 92.22 295.8 87.7L295.8 75.71 321.5 75.71 321.5 82.42C321.5 88.04 321.16 92.36 320.46 95.37 319.77 98.39 318.15 101.61 315.6 105.03 313.05 108.46 309.82 111.03 305.9 112.75 301.99 114.46 297.08 115.32 291.17 115.32 285.45 115.32 280.39 114.47 276.01 112.78 271.62 111.09 268.21 108.77 265.77 105.82 263.33 102.88 261.64 99.63 260.71 96.09 259.77 92.55 259.3 87.4 259.3 80.64L259.3 54.12C259.3 46.17 260.35 39.9 262.45 35.31 264.55 30.72 268 27.2 272.79 24.76 277.57 22.31 283.07 21.09 289.29 21.09 296.9 21.09 303.17 22.56 308.12 25.51 313.06 28.46 316.53 32.36 318.52 37.23 320.51 42.09 321.5 48.94 321.5 57.75L321.5 69.81 321.5 69.81Z" id="Fill-27"/>
    <path d="M357.94 22.74L357.47 31.11C359.44 27.77 361.84 25.27 364.69 23.6 367.53 21.93 370.8 21.09 374.52 21.09 379.17 21.09 382.97 22.21 385.92 24.45 388.88 26.69 390.78 29.51 391.63 32.91 392.48 36.31 392.9 41.99 392.9 49.94L392.9 113.67 365.79 113.67 365.79 50.69C365.79 44.44 365.59 40.62 365.19 39.25 364.79 37.88 363.67 37.19 361.83 37.19 359.91 37.19 358.7 37.98 358.21 39.56 357.72 41.13 357.47 45.35 357.47 52.2L357.47 113.67 330.36 113.67 330.36 22.74 357.94 22.74" id="Fill-28"/>
    <path d="M430.82 10.6L430.82 24.93 438.13 24.93 438.13 39.32 430.82 39.32 430.82 81.79C430.82 87.77 431.12 91.11 431.72 91.79 432.33 92.48 434.84 92.82 439.27 92.82L503.48 92.79 503.54 81.79 524.55 103.16 503.54 124.54 503.48 113.67 428.34 113.67C422.16 113.67 417.76 113.41 415.12 112.88 412.48 112.36 410.15 111.15 408.14 109.25 406.12 107.36 404.87 105.19 404.38 102.74 403.89 100.3 403.64 94.55 403.64 85.51L403.64 39.32 397.8 39.32 397.8 24.93 403.64 24.93 403.64 10.6 430.82 10.6" id="Fill-29"/>
  </g>
</svg>
